<?xml version="1.0" standalone="no"?><!DOCTYPE svg PUBLIC "-//W3C//DTD SVG 1.1//EN" "http://www.w3.org/Graphics/SVG/1.1/DTD/svg11.dtd"><svg t="1504101097356" class="icon" style="" viewBox="0 0 1024 1024" version="1.1" xmlns="http://www.w3.org/2000/svg" p-id="534" xmlns:xlink="http://www.w3.org/1999/xlink" width="88" height="88"><defs><style type="text/css"></style></defs><path d="M369.3568 496.7424l7.2704-225.28c0.7168-19.6608 7.4752-32.5632 32.4608-32.5632h31.1296v-67.4816c-0.7168-7.2704 14.6432-21.9136 21.9136-21.9136h101.4784c12.0832 0 21.9136 9.8304 21.9136 21.9136v67.4816h31.0272c25.088 0 31.8464 12.9024 32.4608 32.5632l7.168 224.1536-104.448 60.3136V421.0688c0-18.432-15.0528-33.4848-33.4848-33.4848h-11.1616c-18.432 0-33.4848 15.0528-33.4848 33.4848v136.0896l-104.2432-60.416M105.3696 767.488c-6.0416-10.4448-2.4576-23.8592 7.9872-30.0032l58.4704-33.6896-15.5648-26.9312c-12.4928-21.7088-4.7104-33.9968 11.8784-44.4416l192.512-119.5008 104.5504 60.3136-118.784 68.608c-15.9744 9.216-21.4016 29.7984-12.288 45.6704l5.5296 9.728c9.216 15.9744 29.7984 21.4016 45.6704 12.1856l117.6576-67.9936v120.6272L304.3328 868.352c-17.3056 9.216-31.8464 9.8304-44.4416-11.8784l-15.5648-26.9312-58.4704 33.6896c-5.9392 4.3008-26.3168-1.7408-30.0032-7.9872l-50.4832-87.7568M869.4784 676.864l-15.5648 26.9312 58.4704 33.792c6.7584 2.9696 11.6736 23.6544 7.9872 30.0032l-50.688 87.8592c-6.0416 10.4448-19.5584 14.0288-30.0032 7.9872l-58.4704-33.6896-15.5648 26.9312c-12.5952 21.7088-27.136 21.0944-44.4416 11.8784L521.3184 761.4464V640.7168l118.9888 68.7104c15.9744 9.216 36.4544 3.6864 45.6704-12.1856l5.632-9.6256c9.216-15.9744 3.6864-36.4544-12.288-45.6704l-119.6032-69.0176c-1.3312 0.6144 75.3664-43.7248 104.3456-60.5184l193.536 120.1152c16.5888 10.3424 24.3712 22.6304 11.8784 44.3392z" fill="#d81e06" p-id="535"></path></svg>